<?xml version="1.0" encoding="UTF-8" standalone="no"?>
<!-- Created with Inkscape (http://www.inkscape.org/) -->

<svg
   xmlns:dc="http://purl.org/dc/elements/1.1/"
   xmlns:cc="http://creativecommons.org/ns#"
   xmlns:rdf="http://www.w3.org/1999/02/22-rdf-syntax-ns#"
   xmlns:svg="http://www.w3.org/2000/svg"
   xmlns="http://www.w3.org/2000/svg"
   xmlns:sodipodi="http://sodipodi.sourceforge.net/DTD/sodipodi-0.dtd"
   xmlns:inkscape="http://www.inkscape.org/namespaces/inkscape"
   id="svg3618"
   version="1.1"
   inkscape:version="0.48.2 r9819"
   width="512"
   height="512"
   sodipodi:docname="SyniTunesArtwork.svg"
   inkscape:export-filename="/Users/andy/Desktop/SyniTunesArtwork.png"
   inkscape:export-xdpi="90"
   inkscape:export-ydpi="90">
  <metadata
     id="metadata3624">
    <rdf:RDF>
      <cc:Work
         rdf:about="">
        <dc:format>image/svg+xml</dc:format>
        <dc:type
           rdf:resource="http://purl.org/dc/dcmitype/StillImage" />
        <dc:title></dc:title>
      </cc:Work>
    </rdf:RDF>
  </metadata>
  <defs
     id="defs3622" />
  <sodipodi:namedview
     pagecolor="#ffffff"
     bordercolor="#666666"
     borderopacity="1"
     objecttolerance="10"
     gridtolerance="10"
     guidetolerance="10"
     inkscape:pageopacity="0"
     inkscape:pageshadow="2"
     inkscape:window-width="1025"
     inkscape:window-height="739"
     id="namedview3620"
     showgrid="false"
     inkscape:zoom="0.5"
     inkscape:cx="256"
     inkscape:cy="256"
     inkscape:window-x="125"
     inkscape:window-y="8"
     inkscape:window-maximized="0"
     inkscape:current-layer="g3729" />
  <g
     id="g3729"
     transform="translate(-20,310.125)">
    <rect
       style="fill:#ffffff;fill-rule:evenodd;stroke:none;stroke-width:0.94749587999999996px;stroke-linecap:butt;stroke-linejoin:miter;stroke-opacity:1"
       id="rect3754"
       width="511.05249"
       height="511.05249"
       x="20.473747"
       y="-309.65125" />
    <path
       style="fill:#e61a2c"
       d="M 215.75709,177.94008 C 169.97234,167.5119 136.7299,149.31526 101.88848,115.60936 L 78.357339,92.845132 65.572457,71.352252 C 48.716983,43.016263 38.990564,13.933941 33.891282,-23.375456 l -4.170168,-30.511463 4.187277,-27.613527 c 10.85912,-71.611774 42.290687,-130.244964 88.283159,-164.685474 24.02849,-17.99324 56.72257,-34.05268 79.31068,-38.95767 l 19.43845,-4.22105 53.13174,-0.16769 53.13175,-0.16769 18.44172,4.32532 c 87.42442,20.50442 145.05404,75.85108 168.79533,162.10855 l 6.92389,25.15612 0.0267,40.172788 0.0267,40.172783 -5.63765,21.300984 c -13.13875,49.642778 -32.48257,81.235381 -69.03993,112.757145 -41.48846,35.77358 -74.17373,53.09593 -116.77712,61.8888 l -23.49401,4.8489 -34.9892,-0.18453 -34.98919,-0.18454 -20.73434,-4.72256 z M 319.14463,45.618371 c 35.42832,-13.255438 60.39516,-47.933829 65.22525,-90.59647 l 1.61389,-14.254858 -7.05999,-19.438444 c -7.73013,-21.283489 -12.75489,-29.187259 -28.39348,-44.661899 -11.53239,-11.41148 -21.6249,-17.12011 -42.76458,-24.18896 l -14.25485,-4.76665 -19.43845,0.1003 -19.43844,0.10031 -14.65021,5.6986 c -28.79184,11.19934 -51.06114,35.01618 -60.57264,64.781902 l -4.445,13.910383 1.14835,21.078841 1.14836,21.078815 7.94247,16.846652 c 4.36837,9.265658 12.21784,21.770875 17.44329,27.78938 l 9.50079,10.942729 19.00028,9.390453 c 30.19373,14.922531 59.19952,16.962556 87.99496,6.188812 z M 251.35103,23.269396 C 235.95029,17.819193 213.54466,-3.456339 205.16195,-20.590005 l -6.93676,-14.178219 1.26457,-17.67403 1.26457,-17.674029 7.41881,-13.630832 c 9.28051,-17.051355 23.6816,-29.539675 42.36749,-36.740235 l 14.46052,-5.57233 16.84665,-0.27994 16.84665,-0.27994 14.67095,7.20461 c 17.01936,8.35788 30.25311,21.98911 39.97645,41.177208 l 6.88085,13.578738 -1.2325,17.22596 -1.2325,17.22596 -7.5014,13.835351 -7.50138,13.835351 -15.14625,11.8245089 c -8.33044,6.5034551 -18.8272,13.1936231 -23.32613,14.8670401 -11.43639,4.253857 -39.74714,3.780077 -52.93151,-0.885771 z m 36.67913,-55.624739 c 3.53443,-1.610411 7.76848,-6.168467 9.40901,-10.129011 l 2.98276,-7.201036 -4.13982,-6.318168 c -4.32381,-6.598937 -14.28025,-12.300673 -21.47961,-12.300673 -16.43888,0 -18.49837,29.822927 -2.5045,36.267004 7.61845,3.069538 8.32857,3.055179 15.73216,-0.318116 z"
       id="path3733"
       inkscape:connector-curvature="0"
       sodipodi:nodetypes="cscsscssscccsscccssscccccsscssscccsscccsscsssscccsscccsscccccssssscssss" />
    <path
       style="fill:#241c1d"
       d="M 217.05299,177.83822 192.43096,172.5879 167.95359,160.86548 C 136.24994,145.68235 115.83185,130.93256 93.695761,107.2225 60.276896,71.42744 42.056673,30.716601 34.27663,-25.542195 l -4.196123,-30.342892 5.494676,-31.479553 c 15.1489,-86.78959 54.526208,-145.4191 120.683567,-179.6877 29.32561,-15.19026 43.83214,-18.73811 89.30396,-21.84103 69.72929,-4.75822 114.20751,2.57826 160.7615,26.51686 103.44276,53.19146 146.1645,195.64205 93.03767,310.223252 -13.64164,29.42164 -31.57749,50.975245 -64.22526,77.179848 -31.43671,25.23255 -63.85658,42.48044 -94.97349,50.52736 l -20.73434,5.36195 -38.87689,1.08632 -38.87688,1.08633 z m 122.34113,-15.7279 C 412.30676,142.15676 473.12628,82.178351 494.19577,9.4495437 l 5.63129,-19.4384437 1.48131,-29.805614 1.48129,-29.805613 -5.27036,-24.701803 -5.27036,-24.70178 -14.56302,-29.82873 -14.56302,-29.82873 -20.20756,-22.38215 c -22.19272,-24.5809 -36.2211,-36.18272 -56.47547,-46.70657 -19.5388,-10.15207 -67.148,-25.83861 -78.19293,-25.76345 -5.25387,0.0358 -16.86865,-1.23229 -25.81065,-2.81785 l -16.25816,-2.88285 -23.91462,3.2196 c -47.65608,6.41591 -79.89948,19.83693 -111.28212,46.32023 -19.2232,16.22216 -51.198923,54.85817 -60.23401,72.78026 -13.246068,26.27507 -24.948061,76.013202 -24.942123,106.013951 0.0034,16.96279 4.589704,40.310771 10.57801,53.850061 4.140041,9.36044 12.094685,30.883437 15.789889,42.722926 l 3.627141,11.621442 8.293721,5.22521 c 4.561547,2.873883 9.470573,8.469563 10.908945,12.43485 3.829892,10.558211 20.116897,29.45163 30.970957,35.92727 5.19068,3.09683 11.77022,7.80702 14.62119,10.46711 9.15916,8.54594 25.50486,18.32079 41.46868,24.79853 24.47725,9.93232 55.90022,19.27648 59.79628,17.78143 1.95457,-0.75006 7.96092,0.33173 13.34742,2.40394 l 9.79366,3.76767 27.74071,-1.41735 c 15.25739,-0.77954 36.2509,-3.74628 46.65226,-6.59277 z M 245.56271,55.256081 C 187.72646,41.721637 154.3829,-15.450662 168.74327,-76.461768 c 6.3549,-26.999222 20.09614,-45.363292 47.60859,-63.625002 18.85319,-12.51406 31.69865,-16.62311 57.1307,-18.27528 l 21.44034,-1.39283 17.01673,4.60621 c 44.02942,11.91821 74.98402,49.31572 78.05639,94.303048 l 1.34915,19.755212 -4.30724,16.846651 c -2.36898,9.265659 -6.8294,22.095031 -9.91203,28.5097177 -7.68173,15.9850353 -30.16455,37.8394703 -46.63469,45.3312543 l -13.65421,6.210894 -28.50972,1.391896 -28.50972,1.391922 z m 75.33304,-9.329961 c 27.66344,-10.363541 53.76619,-41.2237293 61.0507,-72.177688 5.14767,-21.873874 4.42907,-33.27465 -3.52901,-55.989301 l -7.1528,-20.416141 -14.62388,-15.22666 -14.62388,-15.22667 -16.57347,-7.75566 c -32.54146,-15.228 -64.31147,-16.6286 -92.12011,-4.06123 l -16.12712,7.28822 -13.1708,13.9262 c -14.75015,15.59611 -24.42603,34.4982 -28.79464,56.251145 l -2.93302,14.604569 3.17073,16.250513 c 1.74391,8.937771 7.32803,24.189588 12.40917,33.892896 l 9.23843,17.642384 13.2082,11.564707 c 28.37762,24.846608 74.48846,32.950469 110.5715,19.432716 z M 250.90848,21.911115 236.81582,16.500256 224.18236,3.8667968 C 217.23397,-3.081617 208.5559,-15.304226 204.89779,-23.294592 l -6.65109,-14.527904 1.37863,-15.203844 c 1.70191,-18.768958 9.99549,-36.42759 23.06602,-49.11213 11.92855,-11.57627 22.37705,-16.80602 44.46824,-22.25757 l 16.57853,-4.09117 14.27889,4.15099 c 7.85339,2.28303 19.92601,7.95165 26.82803,12.59689 l 12.54918,8.4459 10.13455,16.27319 10.13453,16.273219 1.2811,11.365761 c 1.69511,15.038954 -3.14483,34.264767 -11.98888,47.623799 -8.91457,13.46558 -33.93494,33.181863 -46.55769,36.687885 -14.72519,4.089978 -34.04268,2.911438 -49.48935,-3.019309 z m 42.72018,-57.700143 c 8.38746,-8.387429 8.03173,-15.693148 -1.21433,-24.939186 l -7.57599,-7.576017 -8.9533,0 c -10.98235,0 -15.8083,5.319395 -15.8083,17.424725 l 0,9.164941 7.14236,6.143611 c 9.16287,7.881563 18.3861,7.805416 26.40956,-0.21797 z"
       id="path3731"
       inkscape:connector-curvature="0"
       sodipodi:nodetypes="ccssscsssssssccccsscccccccsssscsssssscssssscscsssssscsscssscccsssscccsscsscsscssscsscssscsscccsssscscsscscc" />
    <rect
       style="fill:#ffffff"
       id="rect3756"
       width="36.25"
       height="17.5"
       x="37.5"
       y="18.25"
       transform="translate(20,-310.125)" />
  </g>
</svg>
